<?xml version="1.0" standalone="no"?>
<!DOCTYPE svg PUBLIC "-//W3C//DTD SVG 20010904//EN"
 "http://www.w3.org/TR/2001/REC-SVG-20010904/DTD/svg10.dtd">
<svg version="1.0" xmlns="http://www.w3.org/2000/svg"
 width="3508.000000pt" height="2481.000000pt" viewBox="0 0 3508.000000 2481.000000"
 preserveAspectRatio="xMidYMid meet">

<g transform="translate(0.000000,2481.000000) scale(0.100000,-0.100000)"
fill="#000000" stroke="none">
<path d="M4672 13530 l-122 -79 2 -1118 3 -1118 195 0 195 0 5 694 5 693 62
38 c34 21 102 50 150 66 77 25 103 29 208 29 134 0 170 -12 232 -77 71 -74 68
-39 71 -781 l3 -667 197 2 197 3 0 570 c0 525 -1 575 -18 630 -46 149 -144
264 -279 329 -207 98 -496 88 -723 -24 -44 -22 -86 -40 -93 -40 -9 0 -12 107
-12 465 l0 465 -77 0 -78 0 -123 -80z"/>
<path d="M8413 13532 l-123 -77 3 -1120 2 -1120 195 0 195 0 3 1198 2 1197
-77 0 -78 -1 -122 -77z"/>
<path d="M9195 13532 l-120 -78 0 -1119 0 -1120 198 -3 197 -2 0 1200 0 1200
-77 0 -78 -1 -120 -77z"/>
<path d="M27158 13532 l-118 -76 0 -1123 0 -1123 195 0 195 0 0 689 c0 623 2
691 16 706 29 29 175 96 252 116 92 23 230 25 293 4 61 -21 113 -66 141 -122
l23 -48 5 -670 5 -670 195 0 195 0 0 580 0 580 -23 68 c-48 139 -138 237 -277
304 -108 51 -195 66 -355 60 -158 -6 -219 -21 -348 -83 -52 -25 -100 -43 -108
-40 -12 5 -14 80 -14 466 l0 460 -77 -1 -78 -1 -117 -76z"/>
<path d="M7065 12799 c-317 -62 -549 -271 -637 -575 -30 -104 -33 -332 -5
-434 72 -265 258 -464 512 -549 360 -120 772 -11 974 256 56 74 64 115 25 121
-16 2 -32 -12 -67 -61 -104 -145 -258 -244 -439 -281 -94 -20 -143 -20 -229
-2 -123 26 -206 83 -273 186 -91 139 -128 292 -127 525 0 357 105 623 283 720
45 25 67 30 143 33 74 3 100 0 147 -18 67 -25 147 -93 184 -157 109 -185 89
-478 -41 -608 -53 -53 -107 -75 -185 -75 -77 0 -122 11 -213 52 -63 29 -69 30
-84 15 -22 -22 -6 -40 69 -78 168 -85 419 -77 601 18 142 75 233 190 258 326
43 235 -151 480 -451 568 -60 17 -107 22 -235 25 -88 1 -182 -2 -210 -7z"/>
<path d="M10440 12795 c-264 -59 -452 -203 -561 -430 -60 -125 -81 -218 -82
-365 -1 -154 16 -225 85 -370 45 -93 61 -115 147 -200 144 -143 278 -206 495
-231 196 -23 412 20 571 113 77 45 218 181 249 240 17 30 18 39 7 52 -21 25
-38 19 -68 -21 -140 -190 -324 -300 -535 -319 -253 -22 -441 122 -517 395 -64
229 -49 566 34 776 59 150 153 255 260 292 68 23 204 14 270 -18 101 -48 187
-167 214 -297 16 -75 14 -208 -4 -275 -43 -167 -143 -257 -285 -257 -78 0
-124 12 -207 52 -66 32 -93 32 -93 -1 0 -24 58 -60 146 -93 51 -19 80 -22 204
-22 131 0 153 3 227 27 154 52 276 154 335 282 19 42 23 67 23 155 0 97 -2
110 -31 170 -76 158 -219 271 -419 331 -92 28 -366 36 -465 14z"/>
<path d="M12400 12794 c-82 -17 -138 -38 -222 -81 -84 -44 -98 -40 -98 27 l0
50 -77 0 -78 0 -115 -74 -115 -73 -3 -717 -2 -716 195 0 195 0 0 688 0 689 23
20 c36 34 164 93 245 114 92 23 230 25 293 4 61 -21 113 -66 141 -122 l23 -48
5 -670 5 -670 198 -3 198 -2 -3 587 -3 588 -27 69 c-69 178 -215 299 -413 341
-87 18 -278 18 -365 -1z"/>
<path d="M15470 12794 c-86 -18 -173 -49 -237 -85 -76 -42 -83 -40 -83 26 l0
55 -79 0 -80 0 -121 -76 -120 -77 2 -711 3 -711 195 0 195 0 5 695 5 694 65
38 c36 21 101 50 145 65 71 25 95 28 205 28 144 0 181 -13 242 -84 64 -75 62
-51 66 -778 l3 -663 194 0 195 0 0 573 c0 612 -1 632 -51 729 l-21 41 29 23
c52 42 167 103 248 130 104 35 276 45 352 20 65 -21 116 -65 145 -123 l23 -48
5 -670 5 -670 198 -3 197 -2 0 562 c0 619 -1 632 -61 750 -63 124 -202 227
-365 268 -137 35 -362 24 -509 -25 -81 -27 -186 -81 -243 -125 l-53 -41 -60
55 c-114 106 -264 157 -458 155 -64 0 -145 -7 -181 -15z"/>
<path d="M18404 12799 c-177 -29 -323 -105 -451 -234 -80 -80 -97 -105 -141
-196 -69 -144 -86 -215 -85 -369 1 -144 21 -237 77 -354 108 -224 304 -373
569 -433 112 -25 347 -23 459 5 303 75 507 261 598 547 34 106 39 310 12 426
-76 318 -313 541 -642 603 -89 17 -308 20 -396 5z m349 -91 c274 -128 399
-674 250 -1091 -37 -106 -79 -175 -149 -243 -82 -82 -146 -108 -265 -108 -77
0 -93 3 -152 32 -180 89 -299 332 -314 642 -16 335 97 643 274 747 77 45 112
53 208 50 73 -2 101 -7 148 -29z"/>
<path d="M20500 12794 c-82 -17 -138 -38 -222 -81 -84 -44 -98 -40 -98 27 l0
50 -77 0 -78 0 -115 -74 -115 -73 -3 -717 -2 -716 195 0 195 0 0 688 0 689 23
20 c36 34 164 93 245 114 92 23 230 25 293 4 61 -21 113 -66 141 -122 l23 -48
5 -670 5 -670 198 -3 197 -2 0 557 c0 617 -2 643 -62 756 -68 129 -221 238
-383 272 -88 18 -278 18 -365 -1z"/>
<path d="M22340 12804 c-357 -68 -601 -271 -682 -571 -30 -113 -31 -317 -1
-428 82 -302 283 -507 578 -586 63 -17 109 -22 220 -22 125 0 149 3 220 26 44
15 105 42 135 61 30 20 60 36 66 36 6 0 46 -25 87 -55 l76 -56 118 3 118 3 0
540 c0 531 0 541 -22 611 -46 146 -160 271 -317 348 -147 73 -214 88 -406 91
-91 2 -176 1 -190 -1z m324 -85 c73 -27 148 -96 183 -167 l28 -57 3 -531 3
-530 -56 -53 c-130 -123 -316 -153 -481 -77 -215 99 -349 442 -315 808 30 319
159 535 364 609 73 26 199 25 271 -2z"/>
<path d="M24345 12795 c-76 -17 -187 -58 -242 -90 -64 -38 -73 -35 -73 30 l0
55 -79 0 -80 0 -121 -76 -120 -77 2 -711 3 -711 195 0 195 0 5 695 5 694 65
38 c107 63 199 89 325 95 139 6 203 -14 263 -83 l40 -44 153 0 154 1 -51 47
c-61 58 -156 106 -260 132 -91 24 -283 26 -379 5z"/>
<path d="M25739 12790 c-235 -49 -431 -201 -534 -415 -67 -138 -80 -195 -80
-370 0 -127 4 -162 23 -229 82 -285 292 -489 573 -556 318 -76 642 3 844 205
97 98 138 174 99 189 -27 10 -30 8 -83 -63 -118 -159 -283 -255 -487 -282
-159 -21 -267 8 -362 96 -139 129 -215 353 -214 635 0 368 128 641 337 719
116 43 322 22 470 -49 104 -50 228 -160 282 -250 19 -33 59 -41 70 -14 9 24
-24 78 -95 155 -111 120 -253 198 -424 233 -106 22 -307 20 -419 -4z"/>
<path d="M29590 12803 c-207 -34 -386 -126 -512 -262 -342 -370 -220 -1027
234 -1255 138 -69 224 -88 393 -89 125 0 149 3 219 26 43 14 105 42 138 62 32
20 65 34 73 31 8 -3 45 -28 84 -56 l70 -51 118 3 118 3 0 545 0 545 -23 65
c-13 35 -35 84 -49 107 -89 152 -277 272 -497 317 -73 15 -297 21 -366 9z
m342 -90 c65 -30 133 -95 165 -162 l28 -56 3 -531 3 -530 -56 -53 c-130 -123
-316 -153 -481 -77 -74 34 -170 131 -216 221 -107 206 -134 520 -68 780 52
203 176 358 333 416 71 27 221 22 289 -8z"/>
</g>
</svg>
